HIERARCHY
ROOT hip
{
  OFFSET 0.00112043 5.09927 -9.65472
  CHANNELS 6 Xposition Yposition Zposition Zrotation Xrotation Yrotation
  JOINT abdomen
  {
    OFFSET 0 -1.186 -1.5018
    CHANNELS 3 Zrotation Xrotation Yrotation
    JOINT abdomen2
    {
      OFFSET 0 9.964 0.2134
      CHANNELS 3 Zrotation Xrotation Yrotation
      JOINT chest
      {
        OFFSET 0 13.134 -3.2573
        CHANNELS 3 Zrotation Xrotation Yrotation
        JOINT neck
        {
          OFFSET 0 20.686 -1.6905
          CHANNELS 3 Zrotation Xrotation Yrotation
          JOINT head
          {
            OFFSET 0 7.238 -0.1237
            CHANNELS 3 Zrotation Xrotation Yrotation
            End Site
            {
              OFFSET 0 0 0
            }
          }
        }
        JOINT lCollar
        {
          OFFSET 1.7069 20.075 5.0056
          CHANNELS 3 Zrotation Xrotation Yrotation
          JOINT lShldr
          {
            OFFSET 13.6458 -0.047 -4.849
            CHANNELS 3 Zrotation Xrotation Yrotation
            JOINT lForeArm
            {
              OFFSET 28.3255 -0.9759 2.2888
              CHANNELS 3 Zrotation Xrotation Yrotation
              JOINT lHand
              {
                OFFSET 22.1583 -0.53 10.8316
                CHANNELS 3 Zrotation Xrotation Yrotation
                JOINT lThumb1
                {
                  OFFSET 0.786 0.112 2.5817
                  CHANNELS 3 Zrotation Xrotation Yrotation
                  JOINT lThumb2
                  {
                    OFFSET 0.3601 -0.878 4.2331
                    CHANNELS 3 Zrotation Xrotation Yrotation
                    JOINT lThumb2_End
                    {
                      OFFSET 1.8127 -1.216 2.2227
                      CHANNELS 3 Zrotation Xrotation Yrotation
                      End Site
                      {
                        OFFSET 0.0181 -0.0122 0.0222
                      }
                    }
                  }
                }
                JOINT lCarpal1
                {
                  OFFSET 0.9571 1.114 1.7695
                  CHANNELS 3 Zrotation Xrotation Yrotation
                  JOINT lIndex1
                  {
                    OFFSET 4.1246 0.487 4.1451
                    CHANNELS 3 Zrotation Xrotation Yrotation
                    JOINT lIndex2
                    {
                      OFFSET 3.4052 -1.454 2.7682
                      CHANNELS 3 Zrotation Xrotation Yrotation
                      JOINT lIndex2_End
                      {
                        OFFSET 1.4531 -1.795 1.2713
                        CHANNELS 3 Zrotation Xrotation Yrotation
                        End Site
                        {
                          OFFSET 0.0145 -0.0179 0.0127
                        }
                      }
                    }
                  }
                  JOINT lMid1
                  {
                    OFFSET 5.6954 0.21 2.1184
                    CHANNELS 3 Zrotation Xrotation Yrotation
                    JOINT lMid2
                    {
                      OFFSET 3.9766 -1.54 2.3863
                      CHANNELS 3 Zrotation Xrotation Yrotation
                      JOINT lMid2_End
                      {
                        OFFSET 1.4042 -1.926 1.125
                        CHANNELS 3 Zrotation Xrotation Yrotation
                        End Site
                        {
                          OFFSET 0.014 -0.0193 0.0113
                        }
                      }
                    }
                  }
                }
                JOINT lCarpal2
                {
                  OFFSET 2.0956 0.66 -0.3894
                  CHANNELS 3 Zrotation Xrotation Yrotation
                  JOINT lRing1
                  {
                    OFFSET 5.0395 -0.09 2.4971
                    CHANNELS 3 Zrotation Xrotation Yrotation
                    JOINT lRing2
                    {
                      OFFSET 3.7921 -1.552 1.4806
                      CHANNELS 3 Zrotation Xrotation Yrotation
                      JOINT lRing2_End
                      {
                        OFFSET 1.4655 -1.808 0.9609
                        CHANNELS 3 Zrotation Xrotation Yrotation
                        End Site
                        {
                          OFFSET 0.0147 -0.0181 0.0096
                        }
                      }
                    }
                  }
                  JOINT lPinky1
                  {
                    OFFSET 4.9141 -1.269 0.3591
                    CHANNELS 3 Zrotation Xrotation Yrotation
                    JOINT lPinky2
                    {
                      OFFSET 3.1477 -1.685 0.8462
                      CHANNELS 3 Zrotation Xrotation Yrotation
                      JOINT lPinky2_End
                      {
                        OFFSET 0.8055 -1.585 0.7955
                        CHANNELS 3 Zrotation Xrotation Yrotation
                        End Site
                        {
                          OFFSET 0.0081 -0.0158 0.008
                        }
                      }
                    }
                  }
                }
              }
            }
          }
        }
        JOINT rCollar
        {
          OFFSET -1.7069 20.075 5.0056
          CHANNELS 3 Zrotation Xrotation Yrotation
          JOINT rShldr
          {
            OFFSET -13.6458 -0.047 -4.849
            CHANNELS 3 Zrotation Xrotation Yrotation
            JOINT rForeArm
            {
              OFFSET -28.3255 -0.9759 2.2888
              CHANNELS 3 Zrotation Xrotation Yrotation
              JOINT rHand
              {
                OFFSET -22.1583 -0.53 10.8316
                CHANNELS 3 Zrotation Xrotation Yrotation
                JOINT rThumb1
                {
                  OFFSET -0.786 0.112 2.5817
                  CHANNELS 3 Zrotation Xrotation Yrotation
                  JOINT rThumb2
                  {
                    OFFSET -0.3601 -0.878 4.2331
                    CHANNELS 3 Zrotation Xrotation Yrotation
                    JOINT rThumb2_End
                    {
                      OFFSET -1.8127 -1.216 2.2227
                      CHANNELS 3 Zrotation Xrotation Yrotation
                      End Site
                      {
                        OFFSET -0.0181 -0.0122 0.0222
                      }
                    }
                  }
                }
                JOINT rCarpal1
                {
                  OFFSET -0.9571 1.114 1.7695
                  CHANNELS 3 Zrotation Xrotation Yrotation
                  JOINT rIndex1
                  {
                    OFFSET -4.1246 0.487 4.1451
                    CHANNELS 3 Zrotation Xrotation Yrotation
                    JOINT rIndex2
                    {
                      OFFSET -3.4052 -1.454 2.7682
                      CHANNELS 3 Zrotation Xrotation Yrotation
                      JOINT rIndex2_End
                      {
                        OFFSET -1.4531 -1.795 1.2713
                        CHANNELS 3 Zrotation Xrotation Yrotation
                        End Site
                        {
                          OFFSET -0.0145 -0.018 0.0127
                        }
                      }
                    }
                  }
                  JOINT rMid1
                  {
                    OFFSET -5.6954 0.21 2.1184
                    CHANNELS 3 Zrotation Xrotation Yrotation
                    JOINT rMid2
                    {
                      OFFSET -3.9766 -1.54 2.3863
                      CHANNELS 3 Zrotation Xrotation Yrotation
                      JOINT rMid2_End
                      {
                        OFFSET -1.4042 -1.926 1.125
                        CHANNELS 3 Zrotation Xrotation Yrotation
                        End Site
                        {
                          OFFSET -0.014 -0.0193 0.0113
                        }
                      }
                    }
                  }
                }
                JOINT rCarpal2
                {
                  OFFSET -2.0956 0.66 -0.3894
                  CHANNELS 3 Zrotation Xrotation Yrotation
                  JOINT rRing1
                  {
                    OFFSET -5.0395 -0.09 2.4971
                    CHANNELS 3 Zrotation Xrotation Yrotation
                    JOINT rRing2
                    {
                      OFFSET -3.7921 -1.552 1.4806
                      CHANNELS 3 Zrotation Xrotation Yrotation
                      JOINT rRing2_End
                      {
                        OFFSET -1.4655 -1.808 0.9609
                        CHANNELS 3 Zrotation Xrotation Yrotation
                        End Site
                        {
                          OFFSET -0.0147 -0.0181 0.0096
                        }
                      }
                    }
                  }
                  JOINT rPinky1
                  {
                    OFFSET -4.9141 -1.269 0.3592
                    CHANNELS 3 Zrotation Xrotation Yrotation
                    JOINT rPinky2
                    {
                      OFFSET -3.1477 -1.685 0.8462
                      CHANNELS 3 Zrotation Xrotation Yrotation
                      JOINT rPinky2_End
                      {
                        OFFSET -0.8055 -1.585 0.7955
                        CHANNELS 3 Zrotation Xrotation Yrotation
                        End Site
                        {
                          OFFSET -0.0081 -0.0158 0.008
                        }
                      }
                    }
                  }
                }
              }
            }
          }
        }
      }
    }
  }
  JOINT lThigh
  {
    OFFSET 8.367 -8.2066 0.5982
    CHANNELS 3 Zrotation Xrotation Yrotation
    JOINT lShin
    {
      OFFSET 2.1923 -43.463 -0.4932
      CHANNELS 3 Zrotation Xrotation Yrotation
      JOINT lFoot
      {
        OFFSET 0.7333 -45.8593 -2.6451
        CHANNELS 3 Zrotation Xrotation Yrotation
        End Site
        {
          OFFSET 2.6618 -4.2699 12.3931
        }
      }
    }
  }
  JOINT rThigh
  {
    OFFSET -8.367 -8.2066 0.5982
    CHANNELS 3 Zrotation Xrotation Yrotation
    JOINT rShin
    {
      OFFSET -2.1923 -43.463 -0.4931
      CHANNELS 3 Zrotation Xrotation Yrotation
      JOINT rFoot
      {
        OFFSET -0.7333 -45.8593 -2.6451
        CHANNELS 3 Zrotation Xrotation Yrotation
        End Site
        {
          OFFSET -2.6618 -4.2699 12.3931
        }
      }
    }
  }
}
MOTION
Frames:	4
Frame Time:	0.0333333
0.693735 35.8913 8.36844 0 22.9239 -0 0.181081 -2.25124 -0.0399275 0.361008 -4.50261 -0.0728124 0.361008 -4.50261 -0.0728123 -1.32527 -20.9973 -1.52717 -1.87909e-007 -6.00166 -3.53574e-007 -30.9447 -45.0244 -17.8783 -12.817 -1.44402 29.9912 -53.0331 -8.36798 2.74329 8.2409 5.42757 5.47539 4.11438e-007 -1.18116e-006 1.13487e-006 1.59028e-015 0 1.59028e-015 4.11438e-007 -1.18116e-006 1.13487e-006 -8.82781e-032 6.36111e-015 7.95139e-016 4.11438e-007 -1.18116e-006 1.13487e-006 7.95139e-016 -3.18055e-015 -0 4.11438e-007 -1.18116e-006 1.13487e-006 4.11438e-007 -1.18116e-006 1.13487e-006 7.95139e-016 -3.18055e-015 -0 4.11438e-007 -1.18116e-006 1.13487e-006 -8.82781e-032 6.36111e-015 7.95139e-016 4.11438e-007 -1.18116e-006 1.13487e-006 7.95139e-016 -3.18055e-015 -0 4.11438e-007 -1.18116e-006 1.13487e-006 4.11438e-007 -1.18116e-006 1.13487e-006 7.95139e-016 -3.18055e-015 -0 4.11438e-007 -1.18116e-006 1.13487e-006 29.3811 -45.2018 17.1739 13.391 -1.68446 -29.2638 51.4844 -8.91056 -4.05968 -8.52533 5.57877 -5.0819 -4.12718e-007 -1.1724e-006 -1.13837e-006 -1.59028e-015 -9.54166e-015 -0 -4.12718e-007 -1.1724e-006 -1.13837e-006 0 0 -0 -4.12718e-007 -1.1724e-006 -1.13837e-006 8.82781e-032 -6.36111e-015 7.95139e-016 -4.12718e-007 -1.1724e-006 -1.13837e-006 -4.12718e-007 -1.1724e-006 -1.13837e-006 8.82781e-032 -6.36111e-015 7.95139e-016 -4.12718e-007 -1.1724e-006 -1.13837e-006 0 0 -0 -4.12718e-007 -1.1724e-006 -1.13837e-006 8.82781e-032 -6.36111e-015 7.95139e-016 -4.12718e-007 -1.1724e-006 -1.13837e-006 -4.12718e-007 -1.1724e-006 -1.13837e-006 8.82781e-032 -6.36111e-015 7.95139e-016 -4.12718e-007 -1.1724e-006 -1.13837e-006 138.318 -39.6001 155.218 137.761 65.5269 -136.47 6.51984 -4.43632 9.14915 -138.322 -39.5816 -155.249 -137.708 65.4851 136.398 -6.52058 -4.43676 -9.16521 
0.693741 36.0363 8.30242 0 23.3497 -0 0.180811 -2.1211 -0.0411696 0.360467 -4.24232 -0.0757133 0.360467 -4.24233 -0.0757132 -1.45803 -20.9967 -1.68011 1.95532e-009 -6.21658 -5.39269e-007 -30.8819 -45.1443 -18.0683 -12.817 -1.44403 29.9912 -53.2333 -8.29567 2.73903 7.84257 5.21464 4.76515 -4.11692e-007 1.18082e-006 -1.13538e-006 -4.11692e-007 1.18082e-006 -1.13538e-006 -3.18055e-015 0 -2.38542e-015 -1.59028e-015 1.27222e-014 7.95139e-016 -4.11692e-007 1.18082e-006 -1.13538e-006 -4.11692e-007 1.18082e-006 -1.13538e-006 -3.97569e-015 6.36111e-015 -3.18055e-015 -4.11692e-007 1.18082e-006 -1.13538e-006 -4.11692e-007 1.18082e-006 -1.13538e-006 -3.97569e-015 6.36111e-015 -3.18055e-015 -1.59028e-015 1.27222e-014 7.95139e-016 -4.11692e-007 1.18082e-006 -1.13538e-006 -4.11692e-007 1.18082e-006 -1.13538e-006 -3.97569e-015 6.36111e-015 -3.18055e-015 -4.11692e-007 1.18082e-006 -1.13538e-006 -4.11692e-007 1.18082e-006 -1.13538e-006 -3.97569e-015 6.36111e-015 -3.18055e-015 29.4237 -45.3227 17.4296 13.391 -1.68446 -29.2638 51.6421 -8.85493 -4.04695 -8.10785 5.36817 -4.40101 5.45639e-007 -2.27708e-006 2.34487e-006 9.54036e-007 -6.15816e-006 4.07729e-006 4.12816e-007 1.17243e-006 1.13854e-006 -7.95139e-016 0 -7.95139e-016 5.45639e-007 -2.27708e-006 2.34487e-006 9.54036e-007 -6.15816e-006 4.07729e-006 4.12816e-007 1.17243e-006 1.13854e-006 5.45639e-007 -2.27708e-006 2.34487e-006 9.54036e-007 -6.15816e-006 4.07729e-006 4.12816e-007 1.17243e-006 1.13854e-006 -7.95139e-016 0 -7.95139e-016 5.45639e-007 -2.27708e-006 2.34487e-006 9.54036e-007 -6.15816e-006 4.07729e-006 4.12816e-007 1.17243e-006 1.13854e-006 5.45639e-007 -2.27708e-006 2.34487e-006 9.54036e-007 -6.15816e-006 4.07729e-006 4.12816e-007 1.17243e-006 1.13854e-006 138.541 -39.5926 155.508 137.347 65.7594 -136.123 6.44613 -4.36858 9.34287 -138.545 -39.5742 -155.539 -137.293 65.7179 136.051 -6.44671 -4.36875 -9.35862 
0.693748 36.1812 8.23629 0 23.7755 -0 0.180546 -1.99098 -0.0424095 0.359943 -3.98208 -0.0786081 0.359943 -3.98208 -0.0786082 -1.59072 -20.9946 -1.83305 2.65803e-007 -6.43149 2.57417e-007 -30.8194 -45.2642 -18.2584 -12.817 -1.44402 29.9912 -53.4334 -8.22336 2.73501 7.44192 5.00671 4.05382 7.95139e-016 9.54166e-015 2.38542e-015 7.95139e-016 6.36111e-015 2.38542e-015 -4.11906e-007 1.18053e-006 -1.13585e-006 1.59028e-015 -3.18055e-015 2.38542e-015 2.38542e-015 -3.18055e-015 5.56597e-015 7.95139e-016 1.27222e-014 2.38542e-015 -4.11906e-007 1.18053e-006 -1.13585e-006 2.38542e-015 -3.18055e-015 5.56597e-015 7.95139e-016 1.27222e-014 2.38542e-015 -4.11906e-007 1.18053e-006 -1.13585e-006 1.59028e-015 -3.18055e-015 2.38542e-015 2.38542e-015 -3.18055e-015 5.56597e-015 7.95139e-016 1.27222e-014 2.38542e-015 -4.11906e-007 1.18053e-006 -1.13585e-006 2.38542e-015 -3.18055e-015 5.56597e-015 7.95139e-016 1.27222e-014 2.38542e-015 -4.11906e-007 1.18053e-006 -1.13585e-006 29.4672 -45.4434 17.6859 13.391 -1.68445 -29.2638 51.7997 -8.79924 -4.03438 -7.68812 5.16258 -3.71898 -4.12885e-007 -1.17251e-006 -1.13867e-006 -9.54166e-015 0 7.15625e-015 4.12885e-007 1.17251e-006 1.13867e-006 1.59028e-015 0 -7.95139e-016 -4.12885e-007 -1.17251e-006 -1.13867e-006 -1.03368e-014 0 6.36111e-015 4.12885e-007 1.17251e-006 1.13867e-006 -4.12885e-007 -1.17251e-006 -1.13867e-006 -1.03368e-014 0 6.36111e-015 4.12885e-007 1.17251e-006 1.13867e-006 1.59028e-015 0 -7.95139e-016 -4.12885e-007 -1.17251e-006 -1.13867e-006 -1.03368e-014 0 6.36111e-015 4.12885e-007 1.17251e-006 1.13867e-006 -4.12885e-007 -1.17251e-006 -1.13867e-006 -1.03368e-014 0 6.36111e-015 4.12885e-007 1.17251e-006 1.13867e-006 138.764 -39.584 155.798 136.924 65.9909 -135.768 6.37215 -4.30097 9.5368 -138.768 -39.5655 -155.829 -136.871 65.9496 135.696 -6.37255 -4.30091 -9.55221 
0.693754 36.326 8.17005 0 24.2013 -0 0.180285 -1.86086 -0.0436468 0.359435 -3.72185 -0.0814961 0.359435 -3.72184 -0.081496 -1.7235 -20.9932 -1.98604 -8.85692e-008 -6.6464 -1.12351e-006 -30.7574 -45.3843 -18.4487 -12.817 -1.44401 29.9912 -53.6334 -8.15101 2.73125 7.03899 4.80381 3.34151 3.20719e-007 -3.69396e-007 1.70589e-006 -4.12079e-007 1.18029e-006 -1.13627e-006 9.54166e-015 -6.36111e-015 -9.54166e-015 -7.95139e-016 -3.18055e-015 -1.59028e-015 3.20719e-007 -3.69396e-007 1.70589e-006 -4.12079e-007 1.18029e-006 -1.13627e-006 8.74653e-015 -3.18055e-015 -8.74653e-015 3.20719e-007 -3.69396e-007 1.70589e-006 -4.12079e-007 1.18029e-006 -1.13627e-006 8.74653e-015 -3.18055e-015 -8.74653e-015 -7.95139e-016 -3.18055e-015 -1.59028e-015 3.20719e-007 -3.69396e-007 1.70589e-006 -4.12079e-007 1.18029e-006 -1.13627e-006 8.74653e-015 -3.18055e-015 -8.74653e-015 3.20719e-007 -3.69396e-007 1.70589e-006 -4.12079e-007 1.18029e-006 -1.13627e-006 8.74653e-015 -3.18055e-015 -8.74653e-015 29.5115 -45.564 17.9429 13.391 -1.68446 -29.2638 51.9573 -8.74352 -4.02197 -7.26625 4.96205 -3.0359 -7.95139e-016 3.18055e-015 -1.59028e-015 -1.59028e-015 3.18055e-015 -0 4.12928e-007 1.17264e-006 1.13875e-006 -0 -3.18055e-015 -0 1.59028e-015 6.36111e-015 4.77083e-015 -7.95139e-016 0 -0 4.12928e-007 1.17264e-006 1.13875e-006 1.59028e-015 6.36111e-015 4.77083e-015 -7.95139e-016 0 -0 4.12928e-007 1.17264e-006 1.13875e-006 -0 -3.18055e-015 -0 1.59028e-015 6.36111e-015 4.77083e-015 -7.95139e-016 0 -0 4.12928e-007 1.17264e-006 1.13875e-006 1.59028e-015 6.36111e-015 4.77083e-015 -7.95139e-016 0 -0 4.12928e-007 1.17264e-006 1.13875e-006 138.986 -39.5743 156.088 136.494 66.2212 -135.405 6.29787 -4.23366 9.73088 -138.99 -39.5557 -156.12 -136.441 66.1801 135.334 -6.2981 -4.23337 -9.746 
